<?xml version="1.0" encoding="utf-8" ?>
<svg xmlns="http://www.w3.org/2000/svg" xmlns:xlink="http://www.w3.org/1999/xlink" width="1024" height="1024">
	<path fill="#000101" d="M522.361 218.227Q525.203 218.15 528.047 218.145C565.803 218.184 597.036 236.534 623.025 262.404C623.59 260.194 624.151 257.956 624.885 255.797C626.576 250.827 629.925 245.953 634.824 243.741C637.561 242.505 640.563 242.107 643.384 243.314C646.555 244.67 648.777 247.642 649.999 250.784C654.279 261.787 648.503 276.704 644.32 286.923C646.073 288.689 647.579 290.696 649.036 292.709C659.889 307.711 669.033 324.504 666.095 343.458C670.443 350.42 673.952 358.15 677.665 365.481Q688.222 386.387 698.553 407.405Q736.003 482.227 768.999 559.118C774.56 559.019 781.202 558.25 786.547 559.844C791.321 561.267 795.107 564.996 797.444 569.312C802.65 578.93 795.695 587.464 797.671 596.923C799.324 604.837 804.157 612.696 807.118 620.268C816.095 643.221 821.873 672.451 814.309 696.481C808.646 714.47 795.328 725.164 779.157 733.609L765.292 838.711C775.561 838.14 786.184 838.827 796.492 838.821L868.745 838.857Q888.501 838.89 908.256 838.713C915.5 838.618 923.422 837.757 930.581 838.588C931.958 838.748 932.595 838.848 933.457 839.939C933.481 841.323 933.569 841.334 932.686 842.378C926.308 842.95 919.706 842.555 913.296 842.553L878.342 842.545Q821.542 842.14 764.741 842.57C764.389 847.917 763.537 853.404 762.413 858.641C747.577 859.237 732.65 858.996 717.8 859.006L646.894 858.938C632.256 858.898 617.142 858.053 602.551 859.04C602.625 848.262 603 837.44 603.274 826.661C603.393 822.028 603.984 817.064 603.534 812.466C603.389 810.989 603.189 809.601 602.277 808.391L601.533 808.514C600.829 809.953 600.574 811.38 600.452 812.975C599.225 829.02 599.877 845.405 599.397 861.511C599.051 873.102 596.675 898.849 598.716 909.225C598.952 909.529 599.08 909.965 599.424 910.138C600.217 910.538 606.999 909.801 608.374 909.789C620.942 909.681 637.83 908.501 649.826 911.009C653.745 911.828 658.003 913.624 661.3 915.898C665.775 918.984 669.879 923.829 670.654 929.391C670.864 930.903 670.681 932.492 669.567 933.637C668.384 934.853 666.687 935.258 665.057 935.383C658.336 935.899 651.327 935.505 644.574 935.505L605.918 935.507L482.625 935.531L425.067 935.54C415.501 935.548 405.424 936.193 395.908 935.416C394.217 935.278 392.797 934.986 391.25 934.281C390.046 932.977 389.71 931.86 389.681 930.112C389.599 925.159 392.101 920.293 395.611 916.918C404.805 908.078 419.904 909.036 431.671 909.206L451.652 909.532C451.551 912.827 451.391 914.767 453.285 917.648L453.961 917.763C454.275 917.078 454.303 917.079 454.525 916.219C455.852 911.066 455.261 902.735 455.42 897.264C455.966 878.45 456.851 858.482 456.273 839.766C456.216 837.925 456.198 835.53 455.256 833.913L454.722 834.275C452.372 838.988 452.642 852.548 452.46 858.381C445.704 858.729 438.798 858.396 432.03 858.347L393.54 858.112L293.611 858.018C292.615 853.053 292.225 848.014 291.927 842.967C272.946 841.806 253.428 842.741 234.393 842.784L135.515 842.731C127.357 842.737 97.7713 843.843 92.1767 842.162C90.9679 841.799 90.5844 841.557 90.0206 840.445L90.5149 839.761C92.1113 839.066 93.6657 838.867 95.4032 838.805C110.884 838.258 126.671 838.976 142.189 838.991L243.874 839.003C259.632 838.99 275.55 839.446 291.286 838.614C289.984 829.57 289.402 820.281 288.436 811.187C285.878 787.11 283.509 762.815 280.122 738.846C269.196 738.988 258.43 738.106 248.507 733.152C236.176 726.996 228.171 716.38 223.948 703.41C218.54 686.8 219.358 669.43 224.037 652.772C228.581 636.594 236.77 621.344 243.973 606.24L274.122 543.974Q320.608 448.923 368.7 354.676C368.008 346.297 367.491 338.342 368.68 329.97C370.399 317.868 376.334 301.806 386.44 294.184C381.944 283.189 376.311 267.958 379.731 255.99C381.1 251.198 383.617 248.706 387.887 246.426C391.151 246.773 393.852 247.071 396.749 248.782C403.902 253.006 406.506 261.102 408.51 268.636C414.245 265.895 420.429 262.41 426.795 261.618C428.278 254.53 428.075 239.076 430.61 234.376C431.402 232.907 432.738 231.106 434.495 230.784C435.74 230.556 436.951 231.112 437.962 231.779C445.339 236.651 446.601 246.761 448.193 254.741L449.119 253.655C469.033 230.576 492.064 220.423 522.361 218.227ZM625.75 559.049C641.176 559.033 656.614 558.893 672.039 559.057C665.867 541.08 658.631 523.347 651.706 505.644C647.468 494.809 643.761 483.26 638.324 472.975C619.844 461.67 583.69 460.804 562.046 459.42C562.125 465.398 562.837 499.442 561.852 502.893C561.497 504.138 560.622 505.141 559.709 506.034C550.857 514.692 529.516 517.9 517.636 517.484C507.415 517.126 485.397 513.907 478.093 506.021C476.845 504.674 476.382 503.292 476.11 501.506C474.921 493.713 475.776 484.883 475.794 476.974C475.808 471.278 475.359 465.514 475.796 459.833L475.868 459.001C472.816 459.013 469.614 458.836 466.597 459.28C446.768 460.102 412.91 463.817 396.202 474.109C388.826 490.287 382.523 506.924 375.518 523.26C371.065 533.647 363.234 548.52 360.512 559.073L625.75 559.049ZM406.572 281.952C405.199 272.518 404.283 258.969 395.827 252.805C393.491 251.103 391.435 250.378 388.566 250.413C385.101 252.786 383.589 255.493 382.864 259.645C380.488 273.26 389.59 291.483 393.52 304.555C394.453 302.661 395.434 300.777 396.317 298.859C399.54 293.118 402.682 287.278 406.572 281.952ZM636.939 294.439C641.914 287.09 648.989 263.972 647.502 255.33C646.977 252.28 645.766 249.463 643.063 247.759C641.287 246.64 639.742 246.418 637.654 246.524C632.967 248.624 630.15 251.937 628.363 256.776C625.156 265.461 625.734 274.116 629.765 282.404C631.805 286.601 634.346 290.565 636.939 294.439ZM795.744 603.862C791.996 625.661 789.868 649.465 787.076 671.644L782.366 709.305C781.546 715.766 780.342 722.344 779.858 728.827Q786.217 725.549 792.098 721.475C806.429 708.822 812.58 698.098 813.851 678.677C815.225 657.694 810.04 637.292 802.213 617.999C800.302 613.286 798.37 608.217 795.744 603.862ZM250.509 730.022C260.295 734.348 269.168 735.1 279.724 735.36C277.803 720.577 262.088 585.567 259.715 581.305C243.875 618.859 211.403 663.815 228.63 705.914C233.146 716.95 240.231 724.201 250.509 730.022ZM430.114 262.758L437.364 259.994C439.664 259.042 441.993 258.131 444.267 257.118C443.774 250.973 442.985 240.513 438.212 236.029C437.311 235.182 436.368 234.802 435.146 234.672C434.303 235.551 433.336 236.513 432.925 237.684C431.013 243.123 432.251 254.505 430.275 262.117L430.114 262.758ZM488.873 910.639C488.775 911.908 488.752 911.856 489.526 912.864C493.46 914.234 539.755 913.263 547.786 913.247C547.91 912.076 548.096 911.768 547.594 910.664C539.77 909.525 530.96 910.37 523.005 910.364C511.797 910.355 500.015 909.626 488.873 910.639ZM625.326 282.981C622.967 292.93 619.534 302.745 615.971 312.322C613.77 318.241 611.157 324.051 609.812 330.241C608.611 335.77 608.526 341.494 607.847 347.101C607.236 352.146 606.115 357.125 605.591 362.184C605.134 366.601 605.182 371.269 604.107 375.579C605.849 382.349 608.975 388.93 611.602 395.406L624.253 426.657Q641.253 469.017 657.8 511.555C663.928 527.249 670.745 543.094 675.987 559.087Q720.463 559.434 764.939 559.277C761.114 548.325 755.703 537.604 750.961 527.014Q738.092 497.682 724.312 468.767Q694.838 405.541 662.085 343.95C650.823 323.153 639.697 301.835 625.326 282.981ZM271.308 559.186C288.321 559.728 305.479 559.255 322.506 559.206C333.129 559.175 344.438 559.916 354.97 558.948C356.607 549.608 359.959 539.913 362.539 530.755L378.048 475.61C381.156 464.159 384.905 451.723 385.119 439.81C385.367 426.015 381.948 411.501 379.285 398.038C376.777 385.353 375.028 372.027 370.3 359.952Q335.174 428.711 300.848 497.873Q290.624 518.063 280.741 538.422C277.497 545.11 273.439 552.076 271.308 559.186ZM566.964 910.677C567.23 911.487 567.216 912.397 568.062 912.756C571.037 914.02 575.723 913.097 578.861 912.825C578.118 911.609 578.085 911.089 576.652 910.725C573.762 909.99 569.933 910.539 566.964 910.677Z"/>
	<path fill="#FEFEFE" d="M513.065 298.308C519.781 305.5 528.179 306.029 536.956 309.08C542.741 311.091 548.487 313.641 553.914 316.472C581.31 330.76 584.152 337.133 595.555 365.003C599.669 375.058 604.211 385.101 607.488 395.468C595.933 409.588 576.818 420.88 559.572 426.206C558.869 442.87 558.896 459.681 558.869 476.363C558.856 485.033 559.468 494.121 558.461 502.729C548.293 510.343 534.897 513.445 522.415 514.017C507.556 514.044 491.759 511.793 479.818 502.311C478.473 477.479 479.281 452.277 479.027 427.4C460.371 422.151 440.207 415.071 427.018 399.977C429.917 391.891 433.635 384.059 437.202 376.249C448.07 352.454 456.555 338.69 480.207 325.42C488.084 321 500.747 316.96 507.109 311.687C511.501 308.047 512.525 303.705 513.065 298.308Z"/>
	<path fill="#000101" d="M516.884 359.577C520.364 359.364 523.477 360.226 526.408 362.129C533.408 366.673 539.504 378.185 540.86 386.264C541.263 388.669 541.949 392.986 540.484 395.032C539.497 394.412 539.124 394.041 538.628 392.985C537.574 390.743 537.29 387.893 536.668 385.489C535.109 379.462 532.49 372.885 528.197 368.262C525.099 364.927 522.03 363.329 517.486 363.27L516.826 363.267C505.444 367.152 499.998 377.901 497.397 388.939C496.956 390.81 496.809 394.082 495.644 395.507C495.163 396.097 494.718 395.931 494.028 395.979C493.391 395.554 492.993 395.487 492.748 394.705C491.424 390.466 496.844 378.034 499.125 374.069C503.192 367 508.885 361.708 516.884 359.577Z"/>
	<path fill="#FEFEFE" d="M370.3 359.952C382.124 337.571 403.533 285.352 422.612 271.564C431.058 265.46 446.853 260.006 457.022 256.887C464.421 254.618 484.591 249.276 491.379 252.647C493.532 253.717 495.674 256.059 496.362 258.378C496.942 260.333 496.515 262.491 495.472 264.212C495.089 264.842 494.635 265.424 494.191 266.011C487.707 267.428 481.241 268.795 474.923 270.855C467.761 273.19 443.935 282.903 438.978 287.125C438.91 288.261 438.932 288.385 439.489 289.375C441.896 290.069 443.482 289.057 445.592 287.908C450.192 285.402 455.233 282.755 460.648 284.387C461.684 284.7 462.34 285.16 463.133 285.901C463.632 287.521 463.56 288.497 462.868 290.061C461.98 292.072 458.806 292.305 457.825 294.324C458.307 295.321 458.413 295.465 459.513 295.887Q459.923 296.04 460.356 296.109Q460.789 296.177 461.226 296.158Q461.664 296.14 462.089 296.034Q462.514 295.929 462.91 295.741C464.669 294.908 465.805 293.047 466.3 291.227C466.887 289.069 466.639 286.425 465.461 284.505C464.401 282.776 462.768 281.74 461.062 280.733C472.168 275.639 483.248 272.316 495.023 269.201C498.497 270.478 501.082 271.427 502.712 275.03C504.005 277.888 504.848 280.673 503.649 283.728C503.025 285.321 501.886 286.781 500.257 287.421C495.724 289.203 490.502 289.805 485.761 290.96Q482.112 291.833 478.527 292.94Q474.942 294.047 471.436 295.383Q467.93 296.718 464.517 298.277Q461.104 299.836 457.799 301.611C454.794 303.199 451.137 304.763 449.348 307.786C449.219 309.101 449.074 309.147 449.862 310.18C453.755 310.646 460.495 304.532 464.261 302.773C472.117 299.102 501.156 287.209 507.582 295.635C508.949 297.428 509.056 299.823 508.658 301.961C508.005 305.467 506.187 308.177 503.181 310.058C499.011 312.665 494.019 314.398 489.532 316.459C477.259 322.098 465.388 329.004 455.867 338.709Q453.84 340.751 451.961 342.929Q450.081 345.107 448.358 347.411Q446.635 349.714 445.076 352.133Q443.518 354.551 442.132 357.072C431.435 376.533 423.747 397.994 415.06 418.417L361.688 546.129C360.968 547.84 357.43 557.866 356.342 558.644C355.961 558.916 355.428 558.847 354.97 558.948C356.607 549.608 359.959 539.913 362.539 530.755L378.048 475.61C381.156 464.159 384.905 451.723 385.119 439.81C385.367 426.015 381.948 411.501 379.285 398.038C376.777 385.353 375.028 372.027 370.3 359.952Z"/>
	<path fill="#000101" d="M454.133 263.754C455.545 264.134 455.581 263.988 456.301 265.234C456.29 269.385 451.982 274.81 449.827 278.313C448.665 277.797 448.487 277.716 447.771 276.676C447.483 272.527 451.82 267.046 454.133 263.754Z"/>
	<path fill="#FEFEFE" d="M295.293 563.252L627.813 563.279L736.406 563.258C750.741 563.309 765.3 562.573 779.603 563.201C781.826 563.299 784.263 563.47 786.351 564.262C791.485 566.21 794.308 571.381 796.382 576.124C786.014 576.57 775.626 576.466 765.25 576.469L410.421 576.413L317.128 576.425C299.375 576.432 281.569 576.671 263.824 576.1C265.952 571.816 268.258 567.604 270.479 563.366C278.741 563.181 287.028 563.282 295.293 563.252Z"/>
	<path fill="#FEFEFE" d="M534.764 258.172C532.837 255.679 530.937 253.064 530.87 249.781C530.819 247.252 531.489 244.334 533.371 242.533C535.993 240.023 540.055 239.627 543.502 239.841C565.318 241.196 592.603 251.485 609.166 265.697C615.361 271.012 619.948 276.981 625.326 282.981C622.967 292.93 619.534 302.745 615.971 312.322C613.77 318.241 611.157 324.051 609.812 330.241C608.611 335.77 608.526 341.494 607.847 347.101C607.236 352.146 606.115 357.125 605.591 362.184C605.134 366.601 605.182 371.269 604.107 375.579C591.725 348.244 592.56 334.877 564.671 318.255C556.29 313.261 547.913 308.732 538.649 305.551C532.366 303.394 523.066 302.507 518.127 298.019C516.11 296.185 513.771 293.316 513.81 290.428C513.832 288.759 514.798 287.319 516 286.239C524.986 278.159 548.656 285.688 558.518 290.031C562.767 291.902 568.884 296.463 573.446 296.564L574.088 295.927C574.277 295.291 574.741 294.595 574.335 293.996C571.298 289.52 547.167 281.849 541.045 280.65C536.811 279.821 532.087 279.949 527.995 278.882C526.388 278.463 524.983 277.608 524.217 276.078C523.248 274.14 523.332 271.591 524.166 269.62C525.198 267.182 527.491 265.261 529.923 264.314C540.382 260.242 562.867 270.408 572.26 276.01C575.851 278.151 578.852 281.42 582.649 283.134C583.776 282.857 583.773 282.862 584.469 281.934C584.402 281.285 584.439 281.239 584.14 280.55C583.299 278.616 579.878 276.439 578.131 275.223C562.322 264.22 551.879 263.475 534.764 258.172Z"/>
	<path fill="#000101" d="M581.068 258.208C584.451 260.076 584.001 264.147 588.271 265.722C589.423 266.147 590.295 266.485 591.301 267.184C591.593 268.714 591.364 268.887 590.679 270.317C588.356 270.11 586.835 269.595 584.893 268.319C582.554 266.781 580.219 264.662 579.827 261.732C579.624 260.217 580.272 259.386 581.068 258.208Z"/>
	<path fill="#000101" d="M566.41 278.625C567.214 278.946 567.623 279.109 568.163 279.818C569.611 281.715 571.286 283.483 572.806 285.339C572.977 286.673 572.726 286.967 572.147 288.207C570.722 287.703 569.461 287.134 568.203 286.282C566.67 285.246 565.17 283.997 564.978 282.007C564.837 280.539 565.58 279.7 566.41 278.625Z"/>
	<path fill="#FEFEFE" d="M476.063 722.18C484.727 721.699 493.614 722.038 502.302 722.004C509.828 721.975 518.038 721.308 525.458 722.369L526.059 723.321C525.634 724.399 525.716 724.337 524.626 724.579C521.547 725.261 517.371 724.748 514.173 724.742C504.379 724.722 481.009 723.561 472.663 725.343Q471.446 725.601 470.277 726.025Q469.107 726.448 468.008 727.029Q466.908 727.609 465.898 728.336Q464.889 729.062 463.989 729.921Q463.128 730.746 462.382 731.676Q461.635 732.606 461.016 733.625Q460.397 734.644 459.916 735.735Q459.436 736.826 459.101 737.971C456.86 745.479 457.859 760.623 457.606 769.091C457.536 775.223 457.763 812.078 456.296 815.361C456.008 816.007 455.646 815.975 455.044 816.219C454.019 815.578 453.937 815.478 453.746 814.25C453.09 810.02 454.236 800.498 454.338 795.704L455.027 760.47C455.132 753.911 454.678 746.703 455.694 740.238C456.32 736.248 457.904 732.626 460.556 729.564C464.73 724.744 469.883 722.746 476.063 722.18Z"/>
	<path fill="#FEFEFE" d="M533.685 748.268C538.647 748.188 555.86 746.884 559.657 748.772L559.732 749.67C558.964 750.444 558.394 750.903 557.29 751.011C553.498 751.382 549.37 750.959 545.537 751.02L516.875 751.7C512.009 751.832 495.031 753.399 491.712 750.825L491.715 749.798C492.448 749.11 493.179 748.915 494.174 748.821C497.549 748.502 501.212 748.928 504.636 748.869L533.685 748.268Z"/>
	<path fill="#FEFEFE" d="M503.858 270.574Q511.296 270.376 518.735 270.473C519.291 273.358 520.172 275.971 521.172 278.724C516.813 280.698 513.835 282.084 511.676 286.598C510.948 289.094 510.972 291.557 510.924 294.13C509.245 292.399 507.333 290.856 505.516 289.27C506.67 286.827 507.808 284.464 507.973 281.726C508.243 277.282 506.706 273.895 503.858 270.574Z"/>
	<path fill="#FEFEFE" d="M603.352 730.099C604.3 730.414 604.827 730.649 605.548 731.348C606.412 736.42 604.969 773.473 604.064 779.884C603.025 779.688 602.483 779.477 601.633 778.846C600.734 773.18 601.967 735.028 603.352 730.099Z"/>
	<path fill="#FEFEFE" d="M541.621 721.74C547.379 721.682 577.588 720.398 580.828 722.504L580.883 723.482L579.905 724.375L555.08 724.552C550.937 724.576 546.268 725.013 542.188 724.343C541.167 724.176 540.523 723.771 539.736 723.138C540.102 722.398 540.92 722.151 541.621 721.74Z"/>
	<path fill="#000101" d="M487.039 90.5555C491.566 90.0727 495.358 90.611 499.442 92.7158C518.916 102.752 525.492 135.938 531.685 155.234C541.606 134.694 554.081 111.041 571.82 96.1988C575.492 93.1262 580.176 90.0855 585.179 90.6933C588.82 91.1355 591.721 93.4544 593.854 96.3173C605.247 111.603 602.123 145.235 599.399 163.476C607.943 153.729 617.182 144.362 627.342 136.29C633.489 131.406 646.279 121.311 654.787 122.604C656.838 122.915 658.506 124.022 659.654 125.743C666.551 136.079 656.988 171.843 654.863 184.308C667.628 169.51 691.246 143.054 709.284 135.865C713.947 134.006 719.373 133.125 724.078 135.341Q724.656 135.607 725.205 135.93Q725.754 136.253 726.266 136.63Q726.779 137.008 727.251 137.435Q727.723 137.862 728.15 138.335Q728.576 138.808 728.952 139.322Q729.328 139.835 729.65 140.385Q729.972 140.934 730.236 141.513Q730.501 142.092 730.705 142.695C736.929 160.674 713.426 208.426 705.165 225.696C727.341 201.153 768.15 162.855 801.999 158.148C807.752 157.348 813.785 157.566 818.514 161.356C822.719 164.727 824.604 169.733 824.992 174.992C825.375 180.182 824.21 185.235 822.272 190.021C810.817 218.299 771.943 257.465 751.535 281.537C776.826 267.807 829.026 246.985 857.881 251.582C863.783 252.522 869.487 254.901 873.012 259.955C876.091 264.371 876.893 269.892 875.878 275.109C869.666 307.05 801.158 348.984 774.957 367.088C781.729 366.173 788.439 363.776 795.056 362.044C810.561 357.986 842.96 349.82 857.163 357.283C859.301 358.406 861.048 360.049 861.722 362.425C862.66 365.731 861.436 369.285 859.701 372.103C851.715 385.067 819.962 408.501 806.649 420.674C802.539 424.432 797.074 429.037 794.417 433.966C793.592 435.497 793.546 436.431 794.033 438.069C801.047 444.152 838.858 425.891 852.71 431.603C854.339 432.275 855.851 433.473 856.322 435.255C857.126 438.292 855.037 441.666 853.243 443.92C849.332 448.834 844.07 452.824 839.269 456.829C826.187 467.743 807.935 480.815 798.843 495.286L798.461 495.9C807.475 494.886 823.744 487.909 832.13 491.426C833.665 492.07 834.933 493.157 835.483 494.765C836.406 497.465 835.53 500.005 834.222 502.411C831.814 506.843 808.663 530.372 804.719 531.348C803.79 531.578 803.588 531.519 802.8 530.991C803.939 523.246 832.183 506.868 832.05 497.754C832.033 496.52 831.786 495.7 830.762 494.928C826.102 491.416 806.292 499.286 799.53 499.119C797.829 499.077 796.682 498.809 795.458 497.571C790.81 484.98 852.098 447.483 852.095 437.708C852.095 436.482 851.836 435.653 850.788 434.931C844.386 430.522 812.516 440.756 804.185 442.259C800.392 442.943 794.074 443.796 790.94 441.154C789.872 440.255 789.688 438.819 789.656 437.504C789.584 434.607 791.22 432.148 792.916 429.938C798.468 422.706 805.955 416.507 812.838 410.564C825.198 399.891 838.433 389.608 849.882 377.971C852.529 375.28 858.821 369.153 858.367 365.074C858.177 363.364 857.38 362.163 856.031 361.155C845.889 353.576 813.523 360.872 801.582 364.022C792.976 366.292 783.665 370.017 774.869 370.98C772.605 371.228 770.519 371.445 768.67 369.978C768.758 368.108 769.521 367.092 770.943 365.908C781.16 357.395 793.038 350.336 804.032 342.847C823.353 329.685 857.423 304.527 868.817 284.287C871.782 279.02 874.118 272.447 872.26 266.43C871.072 262.584 868.176 259.376 864.645 257.508C843.228 246.173 788.117 268.158 767.913 277.422C763.643 279.38 759.359 281.409 755.209 283.612C752.18 285.22 749.01 287.797 745.673 288.627C744.425 288.937 743.902 288.896 742.814 288.251C742.591 286.242 744.436 284.024 745.613 282.515C751.957 274.38 759.468 266.824 766.349 259.114C779.219 244.695 791.634 230.249 803.156 214.707C809.943 205.554 817.226 195.571 820.407 184.495C821.927 179.203 822.142 172.878 819.233 167.996C817.385 164.893 814.277 162.776 810.801 161.897C805.38 160.526 798.962 162.052 793.742 163.706C767.108 172.15 742.261 193.368 722.47 212.526C715.351 219.417 707.952 229.733 699.757 234.904L698.85 234.617C698.005 232.848 698.489 231.111 699.18 229.336C701.838 222.507 705.826 215.943 708.971 209.307C715.678 195.154 728.979 164.314 728.419 149.218C728.287 145.664 727.215 142.124 724.502 139.679C722.51 137.883 720.051 137.171 717.398 137.357C701.559 138.469 675.668 166.357 665.241 177.85C661.637 181.821 658.453 186.164 654.811 190.096C653.79 191.199 652.921 192.145 651.378 192.215C648.908 187.67 660.224 144.719 658.354 132.736C658.028 130.646 657.209 128.102 655.257 126.976C651.682 124.914 646.445 127.824 643.268 129.585C635.34 133.98 628.069 139.758 621.378 145.843Q613.668 152.904 606.56 160.569C603.878 163.499 601.389 166.784 598.524 169.525C597.658 170.354 596.997 171.098 595.768 171.291C595.55 170.955 595.199 170.675 595.112 170.283C594.423 167.179 596.746 153.907 597.123 149.843C597.841 142.089 598.512 134.42 598.094 126.624C597.925 121.736 597.467 116.928 596.412 112.143C595.216 106.72 593.099 98.578 588.025 95.5753C585.741 94.224 583.195 94.0905 580.687 94.8651C567.608 98.9026 549.155 129.286 542.47 141.87C539.585 147.3 537.361 153.234 534.322 158.51C533.458 160.012 532.446 161.949 530.66 162.428C525.422 157.814 520.735 111.482 500.274 97.1119C496.397 94.389 491.935 93.2222 487.261 94.2332C468.699 98.2487 462.473 127.804 460.624 143.785C460.225 147.227 460.086 158.625 458.575 160.905C457.352 160.783 456.919 160.536 456.089 159.603C453.117 156.264 451.296 151.894 448.997 148.092C443.081 138.31 433.637 123.37 422.433 119.376C419.568 118.355 416.563 118.227 413.785 119.58C401.357 125.633 404.075 155.785 405.524 167.634C406.096 172.315 408.602 182.482 407.051 186.738L406.298 187.027C402.198 184.752 397.551 175.557 394.587 171.572C385.404 159.222 375.657 146.955 364.411 136.403C356.6 129.072 345.804 119.22 334.248 119.885C329.847 120.139 325.711 122.37 322.833 125.682C320.207 128.704 319.244 132.602 318.487 136.448C313.806 160.23 326.051 186.673 335.231 208.214C337.138 212.687 342.344 222.183 342.394 226.76C342.407 227.92 342.283 228.059 341.534 228.854C340.519 228.839 339.924 228.591 339.126 227.999C332.871 223.357 327.449 216.057 321.895 210.454C303.322 191.714 264.415 151.537 237.486 150.096L236.758 150.062C234.221 151.209 232.448 152.127 231.032 154.612C217.133 179.014 268.563 255.238 283.3 275.674C287.103 280.947 307.395 307.58 308.303 310.81C308.019 312.161 308.06 312.134 306.96 312.96C304.887 312.452 272.926 284.748 268.422 281.191C257.119 272.261 245.533 264.774 232.949 257.843C230.507 256.498 228.043 254.782 225.401 253.865C220.268 252.086 213.183 250.378 208.142 253.059C205.343 254.547 203.59 257.203 202.739 260.204C196.405 282.52 236.773 344.129 249.806 364.172C254.798 371.848 261.049 379.59 265.149 387.719C265.888 389.183 266.448 390.284 265.96 391.889L264.857 392.283C258.34 391.347 230.13 369.319 222.936 364.566C214.759 359.164 206.323 353.932 197.473 349.706C191.788 346.991 184.256 343.282 177.927 345.778C175.283 346.82 173.298 348.881 172.196 351.484C163.64 371.69 206.814 434.433 218.191 451.507C222.597 458.12 230.711 468.247 233.459 475.338C233.152 476.558 233.024 476.344 232.016 476.968C230.823 476.974 230.078 476.741 229.014 476.183C213.179 467.873 196.094 451.809 178.656 447.012C176.753 446.489 175.041 446.098 173.288 447.069C172.985 447.708 172.905 447.788 172.756 448.565C171.339 455.948 186.225 474.508 190.324 481.47C191.38 483.262 192.637 485.241 192.124 487.344L191.088 487.296C183.925 482.584 171.301 460.465 169.445 452C168.977 449.869 168.659 446.833 170.104 444.969C171.161 443.606 172.638 442.983 174.315 442.778C184.905 441.482 214.244 461.209 222.8 467.842C223.503 468.387 223.525 468.426 224.457 468.593C223.325 465.701 221.103 463.215 219.426 460.602C215.974 455.221 212.593 449.866 209.02 444.551C195.175 423.958 172.038 387.796 167.97 363.896C166.975 358.045 166.917 351.382 170.676 346.441C172.86 343.571 175.871 341.888 179.438 341.452C198.488 339.121 245.871 375.627 260.833 387.139C253.872 378.115 247.907 368.225 241.81 358.608C227.392 335.866 204.405 300.186 199.225 273.841C197.954 267.38 197.398 259.713 201.45 254.082C203.766 250.863 207.457 248.901 211.329 248.294C231.07 245.197 267.402 274.979 281.885 287.265C287.1 291.689 291.862 297.15 297.492 301.018C297.63 301.113 297.771 301.204 297.91 301.297C274.811 272.922 225.031 201.137 225.389 164.332C225.437 159.427 226.175 153.285 229.973 149.794C232.773 147.219 237.111 146.266 240.811 146.514C268.37 148.361 318.504 200.318 336.865 221.101C326.741 196.429 312.504 169.095 314.034 141.781C314.466 134.073 316.183 126.357 322.292 121.065C326.885 117.088 331.966 115.786 337.965 116.435C362.591 119.1 388.796 159.367 403.786 177.442C400.711 163.329 399.111 144.815 402.365 130.795C403.564 125.627 405.821 119.914 410.586 117.081C414.2 114.932 418.798 114.77 422.779 115.871C437.263 119.872 448.953 141.167 456.205 153.305C457.847 137.196 459.614 120.454 467.734 106.095C472.191 98.213 478.21 92.9875 487.039 90.5555Z"/>
	<path fill="#000101" d="M696.206 297.746C696.831 297.91 697.391 298.208 697.977 298.478C702.21 304.056 703.694 313.555 704.332 320.337C704.946 326.862 704.72 334.774 700.176 339.956C697.931 342.517 695.666 342.646 692.417 342.753C690.923 341.961 689.504 341.132 688.346 339.874C684.653 335.861 683.721 329.888 683.936 324.622C684.293 315.879 689.805 303.62 696.206 297.746ZM693.537 339.39C695.829 338.844 697.14 338.306 698.459 336.286C702.902 329.476 701.245 318.563 699.398 311.112C698.757 308.525 698.091 304.796 696.253 302.82C691.158 311.502 685.185 320.436 687.742 331.069C688.587 334.577 690.442 337.526 693.537 339.39Z"/>
	<path fill="#000101" d="M201.596 624.662C202.528 625.117 203.527 625.313 203.698 626.503C204.055 629.001 200.981 636.594 200.273 639.515C198.192 648.102 197.227 657.351 197.139 666.176Q197.074 670.072 197.243 673.965Q197.411 677.857 197.812 681.733Q198.212 685.609 198.844 689.453Q199.476 693.298 200.336 697.098Q201.196 700.898 202.282 704.64Q203.368 708.382 204.676 712.053Q205.984 715.723 207.509 719.309Q209.034 722.894 210.77 726.382C212.35 729.524 219.158 739.406 219.708 741.318C220.03 742.439 219.755 742.709 219.252 743.685C218.477 743.303 217.644 742.908 216.947 742.398C207.339 735.363 197.982 705.37 195.916 693.749C192.569 674.928 192.793 654.213 197.522 635.688C198.453 632.042 199.431 627.788 201.596 624.662Z"/>
	<path fill="#000101" d="M212.223 506.528C213.737 506.499 215.403 506.604 216.825 507.172C219.343 508.178 221.377 510.385 222.443 512.846Q222.704 513.447 222.903 514.07Q223.102 514.694 223.238 515.335Q223.373 515.975 223.444 516.626Q223.515 517.277 223.52 517.932Q223.525 518.586 223.465 519.238Q223.405 519.89 223.279 520.533Q223.154 521.176 222.964 521.802Q222.775 522.429 222.524 523.034C221.174 526.261 219.103 527.82 215.982 529.173C214.426 529.121 212.971 529.036 211.509 528.445C208.68 527.302 206.408 524.904 205.246 522.104Q204.999 521.515 204.813 520.904Q204.628 520.293 204.505 519.667Q204.381 519.04 204.322 518.404Q204.263 517.769 204.269 517.13Q204.275 516.491 204.345 515.857Q204.415 515.222 204.549 514.598Q204.684 513.974 204.88 513.366Q205.077 512.758 205.334 512.174C206.821 508.876 208.974 507.758 212.223 506.528ZM215.469 525.513C217.737 524.019 219.045 522.891 219.623 520.151C220.113 517.829 219.837 515.39 218.512 513.391C217.491 511.851 215.869 510.595 214.002 510.333C213.323 510.238 212.627 510.27 211.945 510.282C209.721 512.346 208.41 514.104 208.284 517.236C208.192 519.497 208.76 521.691 210.385 523.329Q210.634 523.582 210.906 523.81Q211.178 524.037 211.471 524.238Q211.764 524.438 212.075 524.609Q212.386 524.78 212.713 524.92Q213.039 525.06 213.377 525.168Q213.715 525.276 214.062 525.351Q214.409 525.425 214.762 525.466Q215.114 525.507 215.469 525.513Z"/>
	<path fill="#000101" d="M827.904 725.157L829.877 725.728C830.543 726.639 830.709 726.95 830.738 728.131C830.818 731.485 828.999 735.222 827.719 738.275C820.631 755.185 810.139 768.466 797.568 781.551C796.648 781.489 796.3 781.388 795.484 781.038C794.668 778.65 797.371 776.238 798.915 774.588C813.693 758.786 821.158 745.633 827.904 725.157Z"/>
	<path fill="#000101" d="M841.183 714.558C841.76 714.687 842.356 714.959 842.912 715.164C843.27 715.691 843.457 716.119 843.507 716.763C844.417 728.427 829.521 758.082 821.848 766.886C820.668 766.324 820.474 766.271 819.796 765.173C819.981 760.667 826.505 754.418 828.62 750.048Q833.411 740.358 836.592 730.026C838.129 724.892 839.19 719.537 841.183 714.558Z"/>
	<path fill="#000101" d="M189.226 707.252C190.104 707.253 190.876 707.383 191.739 707.526C194.007 709.576 197.568 720.863 198.872 724.273C197.326 724.428 196.222 724.68 194.987 723.532C191.69 720.468 189.556 711.645 189.226 707.252Z"/>
</svg>
