<?xml version="1.0" encoding="utf-8" ?>
<svg xmlns="http://www.w3.org/2000/svg" xmlns:xlink="http://www.w3.org/1999/xlink" width="1024" height="1024">
	<path fill="#FDFEFE" d="M0 0L1024 0L1024 1024L0 1024L0 0Z"/>
	<path fill="#151515" d="M295.758 150.064C296.605 149.977 297.457 149.896 298.307 149.865C307.768 149.516 317.454 150.01 326.918 150.223L366.364 150.867L519.084 153.362Q598.202 154.12 677.304 155.787L728.954 156.458C738.736 156.546 748.877 156.118 758.612 156.927C762.7 157.266 766.632 158.649 769.601 161.571C772.108 164.037 774.404 167.654 774.835 171.205C775.674 178.129 774.903 185.536 774.746 192.496Q774.459 211.354 773.749 230.201L771.652 335.438C780.472 343.749 785.948 356.229 787.219 368.182C789.466 389.297 781.341 404.062 768.516 419.911C768.432 433.931 767.898 447.988 767.462 462.004C780.862 478.942 808.306 508.031 808.539 529.841C808.636 539.006 805.432 548.726 798.926 555.332C791.249 563.126 782.008 564.964 771.471 565.026C771.436 573.233 772.066 581.546 772.266 589.767C772.725 608.675 772.53 627.642 770.211 646.436C769.691 650.65 769.41 657.262 766.742 660.673C763.659 664.615 754.257 665.095 749.636 665.678C750.337 703.923 749.714 742.184 750.153 780.423Q750.527 806.661 750.491 832.902C750.507 842.058 751.059 851.638 750.235 860.744C750.052 862.768 749.909 866.755 748.188 867.966C746.846 868.909 744.507 869.227 742.927 869.397C735.39 870.21 727.467 870.039 719.869 870.377C713.245 870.672 706.634 871.5 700.001 871.441C696.74 871.412 693.37 871.228 690.193 870.437C688.018 869.895 685.011 868.825 684.044 866.58C683.428 865.148 683.851 863.664 684.604 862.391C689.901 853.433 711.726 848.05 721.467 845.248C716.175 818.503 713.195 791.261 710.86 764.121Q706.566 715.436 706.485 666.562C701.224 665.97 695.919 665.696 690.636 665.372C688.188 678.682 686.68 692.355 685.103 705.795C680.544 744.636 678.292 783.44 675.957 822.454C675.555 829.167 674.072 867.511 672.64 869.972C671.517 871.901 669.511 873.222 667.378 873.787C657.791 876.324 616.902 876.099 606.183 874.65C603.066 874.228 600.08 873.592 597.344 871.965C595.591 870.922 593.207 869.283 592.95 867.054C592.821 865.943 593.209 864.86 593.874 863.985C601.298 854.213 631.162 849.274 643.376 847.241C643.136 844.466 643.041 841.659 642.881 838.877C642.258 832.826 642.276 826.569 642.087 820.488Q641.456 801.311 641.485 782.124Q641.209 719.951 644.96 657.891C640.497 656.952 633.892 656.426 630.621 653.066C628.393 650.777 628.798 648.159 628.828 645.216L440.268 643.277C415.146 642.973 389.985 643.286 364.873 642.595C368.413 674.451 373.212 708.01 372.203 740.029C365.455 745.542 356.543 748.591 348.303 751.03C347.863 759.64 348.328 768.44 348.396 777.07C348.543 795.671 348.663 814.905 350.581 833.4C358.279 833.584 370.606 831.653 377.136 836.453Q377.481 836.707 377.798 836.996Q378.114 837.285 378.398 837.606Q378.682 837.927 378.93 838.277Q379.178 838.627 379.387 839.001Q379.596 839.375 379.764 839.77Q379.932 840.164 380.057 840.574Q380.182 840.984 380.263 841.405Q380.344 841.826 380.379 842.253C380.576 844.63 379.526 846.753 377.962 848.478C369.734 857.551 347.061 862.57 335.297 863.331C329.364 863.715 319.981 863.486 315.439 859.164C313.732 857.539 312.891 855.344 312.931 853.001C312.984 849.996 314.193 848.152 316.29 846.12Q311.563 801.445 308.563 756.621C298.501 756.619 288.684 756.352 278.666 755.371C276.328 766.586 275.561 778.661 274.31 790.055C272.709 804.643 270.536 819.477 270.52 834.162C277.714 836.556 287.488 836.37 293.6 841.206C295.404 842.633 297.058 844.572 297.159 846.978C297.244 848.986 296.244 850.768 294.893 852.18C287.417 860.004 265.695 862.862 255.255 862.847C248.856 862.837 239.502 862.299 234.885 857.301C233.077 855.344 232.327 852.367 232.492 849.749C232.676 846.832 234.787 845.37 236.837 843.655C236.613 811.003 238.07 778.768 242.865 746.451C234.924 742.792 221.94 737.469 216.665 730.555C215.511 729.042 215.622 727.805 215.701 725.982C216.105 716.673 218.977 702.664 220.398 693.02Q226.422 652.575 233.13 612.238C232.232 611.44 231.321 610.628 230.567 609.689C224.247 601.827 226.264 586.966 227.503 577.736C224.772 574.067 222.513 570.68 220.533 566.539C222.269 560.411 225.444 554.207 227.917 548.335C231.283 540.344 234.269 532.055 238.34 524.393C232.745 520.145 227.972 515.752 224.99 509.258C221.731 502.159 221.062 493.771 223.918 486.421C226.941 478.646 232.543 474.212 239.861 470.869C238.775 458.184 239.222 447.175 243.824 435.169C250.238 418.434 260.719 406.64 277.046 399.273L281.224 236.06L282.373 189.435C282.573 181.769 282.467 173.913 283.126 166.275C283.369 163.468 283.891 160.678 285.195 158.154C287.513 153.667 291.041 151.447 295.758 150.064Z"/>
	<path fill="#FDFEFE" d="M308.53 397.762C310.19 381.277 309.679 364.168 310.002 347.59L312.059 243.586L312.626 210.257C312.719 204.052 312.569 197.717 313.057 191.532C313.242 189.175 313.37 185.212 315.13 183.573C316.284 182.499 317.663 181.666 319.197 181.272C324.223 179.983 339.931 180.957 345.787 180.988C392.583 181.234 439.423 182.421 486.212 183.362L610.197 185.637L687.854 186.781C701.233 186.949 715.085 186.353 728.377 187.657C732.012 188.013 735.588 189.488 738.104 192.197C739.963 194.198 741.488 196.824 741.858 199.552C743.293 210.124 741.66 222.085 741.553 232.83Q741.017 276.567 740.016 320.295C735.548 319.533 730.557 318.92 726.289 320.879C722.598 322.574 721.469 325.083 720.234 328.727C720.86 331.592 721.672 334.434 722.414 337.273C720.482 335.927 718.548 334.574 716.527 333.365C711.861 330.572 705.945 327.83 700.428 329.39C698.182 330.026 696.327 331.311 695.239 333.411C692.979 337.772 694.703 343.333 696.068 347.713C693.272 347.449 690.799 347.539 688.506 349.393C686.998 350.611 686.241 352.357 686.119 354.267C685.813 359.082 688.814 363.3 691.811 366.741C688.153 370.617 685.236 374.493 683.02 379.363C678.591 389.099 676.998 400.36 680.863 410.551C686.244 424.739 698.18 432.46 711.402 438.404C708.449 438.53 705.402 438.783 702.453 438.566C686.641 437.403 668.607 424.631 658.213 413.284C654.411 409.133 651.38 404.232 647.518 400.197C646.567 399.203 646.027 398.81 644.664 398.817C642.905 400.264 642.059 402.75 641.088 404.774C634.589 392.229 626.792 380.021 621.111 367.104C625.015 357.202 624.314 349.568 621.024 339.593C620.667 338.511 620.804 338.597 621.144 337.583C622.741 336.406 626.96 336.684 629.042 336.557C637.733 337.409 647.178 336.518 655.985 336.546C664.5 336.574 673.507 337.521 681.955 336.695C682.562 317.541 684.372 298.328 684.53 279.18C677.467 278.667 670.247 278.854 663.161 278.836Q643.391 278.627 623.642 279.559C622.337 294.987 620.248 310.814 620.071 326.269C619.813 328.573 619.556 330.861 619.136 333.143L618.377 333.373C618.119 333.19 617.87 332.992 617.602 332.822C616.284 331.986 614.657 331.937 613.143 331.861C604.094 331.409 594.835 332.087 585.765 332.099C570.808 332.119 552.804 331.552 538.183 332.837C537.924 340.847 534.218 399.548 535.164 401.039C548.184 401.98 561.416 401.572 574.472 401.782C584.196 401.939 594.065 402.747 603.757 402.573C604.207 398.089 604.58 393.633 604.785 389.131C608.313 399.262 611.54 409.564 615.351 419.587C609.535 419.822 603.438 419.739 597.679 420.516C596.722 447.461 595.3 474.511 595.066 501.467C604.457 502.351 614.079 502.023 623.51 502.142Q641.951 502.297 660.346 503.618C650.39 527.611 643.535 557.261 638.679 582.745C636.605 593.632 635.399 604.79 632.836 615.565C605.611 616.349 578.192 615.137 550.952 614.876C542.894 614.799 534.687 614.404 526.642 614.684C507.668 614.514 488.607 614.07 469.64 614.42C460.466 613.101 450.125 614.065 440.791 613.893Q400.972 613.308 361.148 613.285C359.176 601.019 358.15 588.469 356.556 576.134C354.651 561.39 352.11 546.837 349.265 532.247L366.327 521.285C369.696 523.163 373.11 524.259 376.997 524.298C381.654 524.344 386.351 522.783 389.624 519.378C391.729 517.189 393.158 514.34 393.823 511.387C395.216 505.196 394.685 498.085 394.676 491.77C394.652 474.667 393.916 457.611 393.344 440.521Q402.654 440.402 411.957 440.021Q413.182 400.361 413.508 360.683L463.998 359.76C464.19 382.979 464.246 406.606 463.156 429.795C466.42 429.794 469.684 429.634 472.946 429.509C471.814 433.682 471.325 437.866 470.926 442.159C462.34 442.68 453.468 442.819 444.951 443.963C434.66 444.204 419.243 444.392 409.438 446.173Q410.459 467.534 411.062 488.911C411.269 498.276 410.905 508.01 411.749 517.312Q431.919 516.177 452.065 514.664C460.411 514.084 469.029 513.878 477.309 512.734C477.001 492.041 475.609 471.313 474.346 450.663C473.971 443.09 474.1 436.79 476.189 429.475C492.155 427.798 508.591 427.7 524.649 426.882C526.263 402.256 526.315 377.195 526.653 352.51C520.512 352.35 514.203 353.154 508.075 353.612Q494.105 354.653 480.125 355.535Q445.642 357.749 411.088 358.004Q410.555 370.214 410.181 382.43C406.704 382.892 403.202 382.755 399.747 383.438C396.688 382.792 393.071 383.02 389.926 382.931C383.341 383.525 376.457 383.269 369.836 383.365Q352.179 383.592 334.526 384.043Q334.755 400.857 334.59 417.672C326.966 407.656 320.372 402.129 308.53 397.762Z"/>
	<path fill="#151515" d="M512.519 501.552Q538.884 500.655 565.261 500.266C572.384 500.108 580.777 499.028 587.78 500.033C588.793 501.029 588.505 501.124 588.548 502.472C589.481 514.919 588.835 527.582 589.32 540.08C589.795 552.344 591.387 564.666 591.63 576.89C578.431 578.178 565.052 578.561 551.804 579.202C541.974 579.678 531.953 580.569 522.12 580.485L515.364 580.408C514.568 573.891 514.766 567.045 514.464 560.464Q513.38 538.36 512.938 516.233C512.645 511.36 512.649 506.435 512.519 501.552Z"/>
	<path fill="#FDFEFE" d="M515.424 504.064L561.11 503.066C569.372 502.898 577.779 502.383 586.033 502.67C585.894 508.555 585.81 514.409 585.958 520.295C585.854 538.315 587.304 556.446 588.696 574.408Q566.358 575.998 543.98 576.835C536.247 577.173 528.105 577.019 520.443 578.009C519.198 577.998 519.012 578.19 517.96 577.432C516.825 572.305 517.27 566.019 517.131 560.744C516.751 546.346 517.264 529.441 515.532 515.257Q515.529 509.66 515.424 504.064Z"/>
	<path fill="#151515" d="M561.642 539.725C562.368 539.648 563.105 539.724 563.833 539.754C564.89 540.49 564.983 540.395 565.232 541.637C564.55 542.353 564.282 542.651 563.264 542.864C560.802 543.379 557.799 542.982 555.249 543.039Q546.924 543.239 538.623 543.89C536.395 544.042 535.476 544.271 533.412 543.326L533.113 542.486C537.856 539.844 555.237 540.014 561.642 539.725Z"/>
	<path fill="#151515" d="M531.1 555.078C536.564 555.032 559.962 553.662 563.207 556.024L563.255 557.354C553.033 557.54 542.554 558.334 532.352 557.898C531.195 557.001 531.356 556.482 531.1 555.078Z"/>
	<path fill="#151515" d="M548.417 524.228Q554.582 523.997 560.752 523.961C562.393 523.965 564.099 523.813 565.292 525.014L565.025 526.002C562.986 527.43 552.057 526.659 549.183 526.664C544.629 526.853 538.356 527.808 534.017 526.873C533.067 526.669 532.804 526.58 532.257 525.772C535.84 523.559 544.25 524.3 548.417 524.228Z"/>
	<path fill="#151515" d="M505.623 246.6C519.154 246.58 532.745 247.107 546.28 247.34C554.758 247.485 563.749 246.963 572.134 248.095C572.051 259.969 571.157 271.959 570.604 283.829C570.089 294.884 570.028 306.327 568.351 317.267C561.162 317.935 553.529 317.359 546.288 317.232C531.675 316.977 516.983 316.728 502.405 315.668C502.193 302.457 503.404 288.975 503.963 275.758C504.336 266.952 503.866 255.02 505.623 246.6Z"/>
	<path fill="#FDFEFE" d="M507.532 249.506C528.017 249.396 548.921 249.721 569.382 250.72C567.998 271.972 567.466 293.32 566.281 314.593C558.871 314.967 551.199 314.551 543.769 314.415Q524.353 314.145 504.957 313.226C505.963 292.03 507.404 270.725 507.532 249.506Z"/>
	<path fill="#151515" d="M339.331 272.403C360.53 272.294 381.847 273.047 403.037 273.646C403.108 283.181 402.449 292.798 402.059 302.329C401.613 313.259 401.376 324.241 400.43 335.141C390.652 335.292 380.809 334.8 371.026 334.688C359.706 334.557 348.29 334.806 336.991 334.12C337.653 313.61 337.963 292.866 339.331 272.403Z"/>
	<path fill="#FDFEFE" d="M342.741 275.207C361.977 275.444 381.327 275.357 400.539 276.357C399.278 295.034 399.357 313.89 397.808 332.525C378.552 332.6 359.099 332.141 339.847 331.565Q340.768 310.701 341.45 289.827C341.545 286.964 340.965 280.371 341.74 277.985C342.337 276.146 342.209 278.214 342.177 276.176L341.24 275.975L342.108 275.807L342.741 275.207Z"/>
	<path fill="#151515" d="M704.04 209.507C705.846 209.425 707.685 209.285 709.442 209.805C711.941 210.545 714.28 212.253 715.461 214.615Q715.654 214.995 715.808 215.392Q715.962 215.789 716.074 216.2Q716.187 216.611 716.257 217.032Q716.327 217.452 716.354 217.877Q716.381 218.302 716.364 218.728Q716.348 219.154 716.288 219.576Q716.229 219.998 716.126 220.411Q716.024 220.825 715.88 221.226C714.658 224.704 712.02 226.276 708.843 227.778C706.771 228.319 704.816 228.552 702.717 228C700.446 227.404 698.502 225.985 697.384 223.903C696.166 221.636 696.069 218.935 696.887 216.521C698.124 212.871 700.732 211.138 704.04 209.507Z"/>
	<path fill="#151515" d="M383.895 225.699C401.239 225.567 418.674 226.433 436.018 226.852C441.866 226.993 452.653 226.206 457.991 227.581C458.742 228.658 458.578 228.745 458.41 230.072C442.858 230.034 427.291 229.426 411.743 229.045C403.318 228.838 394.828 228.944 386.42 228.657C385.072 228.611 384.593 228.517 383.708 227.511L383.895 225.699Z"/>
	<path fill="#151515" d="M360.86 209.09C370.339 208.432 381.276 208.902 390.768 209.654C391.933 210.461 391.695 210.683 392.01 212.001C388.65 212.483 363.393 212.012 361.596 211.07C360.955 210.733 361.002 209.744 360.86 209.09Z"/>
	<path fill="#151515" d="M411.99 209.638C416.218 209.656 427.617 208.902 430.841 210.898L431.033 212.352C426.806 212.628 416.029 213.506 412.376 211.29L411.99 209.638Z"/>
	<path fill="#151515" d="M460.212 211.048C463.927 211.055 474.427 210.197 476.833 212.542L476.757 214.207C473.175 214.278 463.832 215.016 460.979 213.105C460.29 212.644 460.367 211.804 460.212 211.048Z"/>
	<path fill="#FDFEFE" d="M645.683 403.049C658.246 418.553 670.15 430.967 689.16 438.375C693.216 439.955 697.922 441.767 702.293 442.144C706.426 442.501 711.067 441.625 715.242 441.46C721.954 441.195 728.121 442.99 734.546 444.649C743.151 447.363 750.423 451.609 757.397 457.32C760.244 460.426 763.426 463.228 766.366 466.248C777.501 477.681 797.145 504.069 802.763 519.184Q803.288 520.572 803.68 522.003Q804.072 523.434 804.326 524.895Q804.58 526.357 804.695 527.836Q804.81 529.316 804.784 530.799C804.646 539.25 801.697 547.357 795.531 553.281C789.06 559.497 780.264 561.683 771.52 561.447C771.31 543.096 769.408 524.815 769.453 506.449C768.8 505.55 768.792 505.528 767.727 505.22C766.34 506.323 766.297 508.45 766.221 510.113C765.594 523.807 767.285 538.199 767.927 551.948C769.218 579.563 770.035 607.64 767.851 635.223C767.242 642.914 766.876 652.347 763.742 659.39C735.685 667.849 659.102 661.259 631.727 650.534C632.646 634.969 635.404 619.357 638.12 604.016C642.352 580.119 647.243 556.421 653.86 533.06C656.278 524.521 659.042 515.665 662.452 507.483C663.974 503.83 669.324 494.663 669.084 491.198C669.017 490.229 669.127 490.596 668.334 489.885L667.194 490.322C666.365 491.275 665.772 492.01 665.324 493.197C664.455 495.496 663.389 497.713 662.365 499.947Q657.96 498.226 653.616 496.356C637.14 489.182 624.674 475.757 618.114 459.125C623.378 441.86 636.011 418.64 645.683 403.049Z"/>
	<path fill="#FDFEFE" d="M368.218 467.451C368.404 467.47 368.593 467.466 368.774 467.51C372.423 468.389 376.196 473.721 378.085 476.872C381.718 482.936 385.696 495.107 383.706 502.075C381.497 509.812 352.842 526.258 345.126 530.615Q352.803 571.891 358.269 613.517Q363.734 655.143 366.972 697.002C367.968 709.998 370.256 726.383 368.423 739.082Q367.589 739.542 366.74 739.976C333.231 757.28 285.522 756.37 250.377 745.181C238.827 741.088 227.602 736.376 218.835 727.587C223.871 686.784 231.11 646.177 237.824 605.627C242.132 579.606 245.435 553.292 250.653 527.432C255.654 530.448 259.814 534.315 265.778 535.425C273.343 536.833 280.076 533.416 286.052 529.21C288.055 530.313 290.102 531.487 292.223 532.347C300.686 535.778 311.23 535.816 319.603 532.09C327.169 528.723 332.591 522.039 335.572 514.445C340.14 502.811 337.555 493.283 332.752 482.297C344.709 477.659 356.302 472.18 368.218 467.451Z"/>
	<path fill="#FDFEFE" d="M298.415 157.701C327.487 157.229 356.845 158.687 385.935 159.176L546.75 161.359L692.437 163.317C715.077 163.696 738.007 163.07 760.595 164.584C761.853 165.43 763.193 166.248 764.266 167.328C766.437 169.512 767.091 171.943 767.351 174.939C767.763 179.694 767.262 184.746 767.099 189.521Q766.608 201.579 766.462 213.646Q765.42 271.025 763.709 328.387C757.065 324.305 750.48 322.156 742.882 320.531C743.754 293.457 743.675 266.361 744.17 239.28L744.829 214.445C744.956 209.658 745.413 204.608 744.709 199.86C744.162 196.175 742.349 192.494 739.813 189.77C737.699 187.5 735.296 186.27 732.301 185.558C725.348 183.904 717.61 184.479 710.502 184.385L680.73 183.937L434.053 179.533L356.065 178.374C344.88 178.255 333.316 177.405 322.165 177.984C319.088 178.143 315.94 178.729 313.582 180.865C310.889 183.305 310.514 187.219 310.182 190.667C309.547 197.26 309.831 204.186 309.74 210.823L309.101 247.772C308.053 297.507 307.932 347.448 305.554 397.128C298.544 395.862 292.371 395.892 285.354 397.016L288.888 248.683L290.261 193.649C290.503 184.565 290.417 175.308 291.055 166.246C291.188 164.363 291.483 162.325 292.588 160.743C294.028 158.68 296.071 158.163 298.415 157.701Z"/>
	<path fill="#FDFEFE" d="M361.572 616.155L408.84 616.662C420.938 616.843 433.122 617.335 445.214 616.966L501.171 617.54C509.595 617.604 519.077 618.531 527.373 617.571C538.958 618.793 551.328 617.961 563.008 618.069L632.201 618.766Q630.949 628.263 629.876 637.783L363.611 634.958C363.139 628.682 362.31 622.404 361.572 616.155Z"/>
	<path fill="#FDFEFE" d="M459.313 445.789C463.29 445.408 467.319 445.483 471.311 445.455C472.106 467.046 474.069 488.644 474.421 510.248L426.878 513.603C422.857 514.062 418.797 514.268 414.759 514.547L412.648 448.602C428.182 447.389 443.766 446.828 459.313 445.789Z"/>
	<path fill="#151515" d="M454.165 464.298C456.427 463.987 458.111 463.817 460.313 464.506L460.536 465.744L460.644 464.653L461.184 464.994L460.463 465.792C452.129 468.264 442.031 467.735 433.343 468.051C431.464 468.201 429.89 468.381 428.07 467.821L427.765 467.027L428.76 465.836C436.899 464.341 445.853 464.894 454.165 464.298Z"/>
	<path fill="#151515" d="M457.792 479.22C458.856 479.123 459.579 478.969 460.589 479.4C461.35 479.725 461.112 479.637 461.386 480.512C458.721 482.406 435.36 482.968 430.623 483.267C430.109 483.332 429.257 483.511 428.717 483.446C427.562 483.307 427.472 483.017 426.883 482.122L427.37 481.264C435.852 479.506 448.797 479.725 457.792 479.22Z"/>
	<path fill="#FDFEFE" d="M516.033 355.706C518.506 355.369 521.141 355.435 523.642 355.332Q523.558 375.792 522.845 396.239C522.547 405.106 521.266 415.22 522.438 423.956C506.703 425.637 490.204 426.051 474.375 426.526C471.686 426.686 469.001 426.662 466.309 426.653C465.929 404.362 466.756 381.884 466.986 359.578C483.239 357.692 499.72 357.061 516.033 355.706Z"/>
	<path fill="#FDFEFE" d="M554.148 335.262C564.283 334.93 574.46 334.989 584.6 334.92C589.481 334.887 595.146 334.334 599.931 334.972C600.85 335.094 601.495 335.207 601.932 336.123C602.347 336.991 602.41 337.967 602.204 338.886C600.876 338.618 599.237 338.452 598.006 339.091C596.179 340.04 595.375 344.862 594.851 346.754C594.317 347.047 594.028 347.188 593.503 347.562C591.162 349.229 590.034 352.068 589.754 354.861C588.774 364.612 596.448 371.774 601.865 378.716C602.314 382.964 602.954 396.026 600.918 399.509L599.625 399.653Q568.549 398.72 537.46 398.399C537.538 389.889 538.445 381.221 538.945 372.719C539.672 360.339 540.146 347.933 540.977 335.562L554.148 335.262Z"/>
	<path fill="#FDFEFE" d="M342.48 752.161L344.174 752.104C346.608 755.576 343.597 827.069 348.628 834.906C349.131 835.689 349.433 836.133 350.322 836.439C353.675 837.595 366.4 836.637 373.023 838.13C364.925 844.422 353.346 847.365 343.315 848.413C335.022 848.611 327.751 847.96 319.653 846.158C319.473 838.512 318.253 830.682 317.493 823.065C315.326 801.356 312.304 778.387 312.068 756.628C322.338 755.615 332.337 754.078 342.48 752.161Z"/>
	<path fill="#FDFEFE" d="M639.148 281.764C653.253 281.345 667.802 280.968 681.868 281.965C681.241 299.346 679.997 316.718 679.159 334.093L664.716 333.834C650.591 333.568 636.522 333.79 622.399 333.971C622.51 328.271 623.217 322.483 623.636 316.79L626.239 282.049L639.148 281.764Z"/>
	<path fill="#FDFEFE" d="M245.872 747.437C255.441 750.76 265.272 752.977 275.107 755.337L272.346 776.554C271.406 784.135 265.231 832.508 267.98 836.22C270.01 838.963 276.022 839.529 279.186 840.132C281.61 840.593 288.235 841.214 289.721 843.122L289.361 843.851C273.781 849.007 255.955 849.514 240.495 843.957Q240.066 819.761 241.412 795.598Q242.758 771.436 245.872 747.437Z"/>
	<path fill="#FDFEFE" d="M609.115 422.718C611.533 422.535 614.016 422.59 616.443 422.534L622.957 438.299C619.762 444.942 617.07 451.597 614.843 458.629C618.396 471.043 628.266 484.119 638.831 491.41C642.11 493.673 647.735 496.228 650.178 499.205L649.125 499.437L598.02 498.98C597.721 473.778 599.633 448.264 600.458 423.052L609.115 422.718Z"/>
	<path fill="#FDFEFE" d="M369.682 386.28C373.993 386.022 378.336 386.053 382.655 385.992C378.337 393.194 373.68 401.026 372.425 409.455C371.733 414.098 372.423 419.01 372.337 423.702C372.247 428.614 371.514 433.552 370.862 438.416Q359.769 438.746 348.672 438.593L340.274 438.895C339.921 433.405 338.011 428.259 337.621 422.844C336.768 410.992 337.468 398.65 337.477 386.752C348.201 386.382 358.95 386.632 369.682 386.28Z"/>
	<path fill="#FDFEFE" d="M370.288 464.293C371.066 454.171 373.605 444.079 374.505 433.877C375.099 427.135 374.227 415.745 375.37 410.159C376.82 403.073 380.792 394.752 384.702 388.644C385.558 387.308 385.942 386.909 387.478 386.533C387.444 386.794 387.415 387.055 387.376 387.315C387.005 389.795 384.86 392.006 385.737 394.591C388.185 393.981 391.694 388.646 393.902 386.87C394.492 387.353 395.14 387.847 395.646 388.417C396.449 389.321 396.695 389.94 396.705 391.121C396.163 391.794 395.494 392.53 395.089 393.29C394.452 394.491 394.5 395.252 394.803 396.531L395.69 396.731Q397.456 395.674 399.173 394.541C399.701 395.517 399.637 396.36 399.694 397.445L400.238 397.783L399.629 398.214C398.658 406.144 393.109 413.154 387.933 418.843C389.728 428.232 389.873 438.031 390.309 447.561C390.999 462.632 391.467 477.42 391.233 492.497C391.156 497.505 391.775 502.737 391.167 507.706C390.892 509.952 390.299 512.156 389.245 514.166C387.612 517.282 384.979 519.665 381.544 520.58C378.368 521.426 373.464 521.34 370.551 519.75L370.392 519.032C372.752 515.777 381.528 512.178 385.425 506.499C388.112 502.586 387.945 498.005 387.144 493.524C385.107 482.141 380.693 471.428 370.882 464.694L370.288 464.293Z"/>
	<path fill="#FDFEFE" d="M607.284 337.692C614.306 341.132 609.904 348.305 612.044 354.064L612.811 354.401C615.35 351.713 615.982 344.008 617.197 340.282C621.534 349.972 621.162 357.259 617.854 367.22C620.446 374.418 634.854 400.888 639.386 407.34C635.2 414.763 630.778 422.145 627.172 429.869L624.958 434.815Q617.136 416.313 610.856 397.233C608.628 390.605 606.529 380.442 603.147 374.654C601.482 371.804 598.417 369.539 596.435 366.841C593.742 363.175 592.487 357.814 593.349 353.335C593.565 352.212 593.504 351.609 594.467 350.96L595.918 352.534L596.925 352.541C597.41 351.42 597.32 349.881 597.659 348.657C598.262 346.482 599.191 343.516 601.27 342.395C602.283 344.358 601.651 346.702 602.451 348.822C604.721 347.492 605.687 340.377 607.284 337.692Z"/>
	<path fill="#FDFEFE" d="M693.577 367.835C694.112 368.278 695.669 369.455 695.702 370.227C695.753 371.432 694.932 373.498 694.71 374.777C694.037 378.665 695.681 383.23 697.14 386.818C698.663 390.565 701.778 397.729 705.889 399.005C710.137 400.323 713.209 395.462 716.54 393.589C717.274 393.589 717.722 393.389 718.288 393.948C719.727 395.368 720.306 398.301 720.445 400.254C720.633 402.906 719.727 405.418 717.927 407.366C714.385 411.199 710.061 411.576 705.211 411.671C707.113 421.278 709.757 426.82 715.905 434.381C716.796 435.32 717.576 436.034 717.936 437.321C716.258 437.889 714.369 436.813 712.81 436.081C700.492 430.297 688.404 422.409 683.638 408.977C679.568 397.508 683.041 386.601 688.073 376.129C689.169 377.901 689.818 379.083 691.925 379.619L692.706 379.017C692.758 378.464 692.827 378.017 692.748 377.451C692.534 375.911 690.883 374.862 689.758 373.963C691.166 371.985 692.372 369.939 693.577 367.835Z"/>
	<path fill="#FDFEFE" d="M642.785 850.64C643.708 850.561 650.565 855.295 652.75 855.948C658.266 857.595 664.929 856.904 670.547 856.415C670.457 859.839 670.901 866.539 668.613 869.259C665.305 873.195 633.114 872.334 626.011 872.379C620.324 872.366 614.545 872.38 608.882 871.832C605.248 871.48 600.001 870.988 597.559 868.012C597.295 866.737 597.172 866.421 597.909 865.24C602.65 857.646 633.826 852.313 642.785 850.64Z"/>
	<path fill="#FDFEFE" d="M721.803 849.094C722.583 849.008 722.361 848.977 723.006 849.07C731.364 850.271 738.778 850.57 747.156 849.358C747.177 854.804 747.013 860.283 746.356 865.69C736.026 867.357 724.855 867.077 714.377 867.614C707.504 868.198 694.269 869.893 688.44 866.314C687.693 865.098 687.744 865.116 687.969 863.697C692.779 856.763 713.358 850.664 721.803 849.094Z"/>
	<path fill="#FDFEFE" d="M403.578 385.722C405.686 385.544 407.874 385.72 409.99 385.776C410.069 393.207 409.64 400.687 409.516 408.12C409.353 417.838 409.466 427.558 409.275 437.277L393.038 437.411C391.971 431.666 392.018 425.687 390.987 419.875C395.88 414.286 401.033 408.191 402.479 400.681C403.64 394.652 401.224 390.95 398.087 386.117L403.578 385.722Z"/>
	<path fill="#FDFEFE" d="M240.99 525.28C243.096 526.206 245.39 526.842 247.574 527.577Q242.072 554.348 238.204 581.404C236.609 580.526 235.075 579.528 233.529 578.566C229.523 575.214 226.359 571.059 223.945 566.451C226.325 559.785 229.65 553.292 232.391 546.748C235.37 539.636 237.906 532.347 240.99 525.28Z"/>
	<path fill="#FDFEFE" d="M350.621 441.569L370.5 441.463C369.571 448.164 368.795 455.017 367.409 461.639C367.074 463.241 367.022 464.031 365.649 464.974Q358.937 467.814 352.146 470.459C351.691 460.825 350.954 451.21 350.621 441.569Z"/>
	<path fill="#FDFEFE" d="M340.387 441.839L347.506 441.864C347.477 451.878 348.438 461.993 349.111 471.984L339.774 476.014C337.244 477.177 334.477 478.029 331.856 478.982C336.603 466.696 339.141 454.934 340.387 441.839Z"/>
	<path fill="#FDFEFE" d="M760.466 429.013C760.467 436.481 761.507 447.524 759.58 454.467L758.946 455.011C752.925 449.245 745.158 445.087 737.26 442.58C745.625 438.31 752.971 434.864 760.466 429.013Z"/>
	<path fill="#FDFEFE" d="M230.775 580.667C233.273 581.889 235.739 583.804 238.079 585.339C236.589 591.986 235.372 598.664 234.185 605.371L233.829 606.864L233.205 607.199L232.31 606.787C228.574 599.327 229.369 588.602 230.775 580.667Z"/>
</svg>
